ISO-10303-21;
HEADER;
/* Generated by software containing ST-Developer
 * from STEP Tools, Inc. (www.steptools.com) 
 */
/* OPTION: using custom renumber hook */

FILE_DESCRIPTION(
/* description */ ('STEP AP242 Edition 2',
'CAx-IF Rec.Pracs.---Representation and Presentation of Product Manufa
cturing Information (PMI)---4.0---2014-10-13',
'CAx-IF Rec.Pracs.---3D Tessellated Geometry---0.4---2014-09-14','2;1',
'CAx-IF Rec.Pracs.---User Defined Attributes---1.5---2016-08-15'),
/* implementation_level */ '2;1');

FILE_NAME(
/* name */ 'VeryCool - Part 202',
/* time_stamp */ '2026-08-15T22:03:54Z',
/* author */ (''),
/* organization */ (''),
/* preprocessor_version */ 'ST-DEVELOPER v20',
/* originating_system */ 'ONSHAPE BY PTC INC, 1.219',
/* authorisation */ '  ');

FILE_SCHEMA (('AP242_MANAGED_MODEL_BASED_3D_ENGINEERING_MIM_LF { 1 0 10303 442 3 1 4 }'));
ENDSEC;

DATA;
#10=SHAPE_REPRESENTATION_RELATIONSHIP('','',#485,#11);
#11=ADVANCED_BREP_SHAPE_REPRESENTATION('',(#483),#787);
#12=CIRCLE('',#491,1.8);
#13=CIRCLE('',#492,1.8);
#14=CIRCLE('',#494,1.8);
#15=CIRCLE('',#495,1.8);
#16=CIRCLE('',#497,1.8);
#17=CIRCLE('',#498,1.8);
#18=CIRCLE('',#500,1.8);
#19=CIRCLE('',#501,1.8);
#20=CIRCLE('',#504,5.);
#21=CIRCLE('',#505,5.);
#22=CIRCLE('',#506,5.);
#23=CIRCLE('',#507,5.);
#24=CIRCLE('',#513,5.);
#25=CIRCLE('',#514,5.);
#26=CIRCLE('',#515,5.);
#27=CIRCLE('',#516,5.);
#28=CYLINDRICAL_SURFACE('',#490,1.8);
#29=CYLINDRICAL_SURFACE('',#493,1.8);
#30=CYLINDRICAL_SURFACE('',#496,1.8);
#31=CYLINDRICAL_SURFACE('',#499,1.8);
#32=CYLINDRICAL_SURFACE('',#518,5.);
#33=CYLINDRICAL_SURFACE('',#519,5.);
#34=CYLINDRICAL_SURFACE('',#520,5.);
#35=CYLINDRICAL_SURFACE('',#521,5.);
#36=ORIENTED_EDGE('',*,*,#160,.F.);
#37=ORIENTED_EDGE('',*,*,#161,.T.);
#38=ORIENTED_EDGE('',*,*,#162,.T.);
#39=ORIENTED_EDGE('',*,*,#163,.T.);
#40=ORIENTED_EDGE('',*,*,#164,.T.);
#41=ORIENTED_EDGE('',*,*,#165,.T.);
#42=ORIENTED_EDGE('',*,*,#166,.F.);
#43=ORIENTED_EDGE('',*,*,#167,.F.);
#44=ORIENTED_EDGE('',*,*,#168,.T.);
#45=ORIENTED_EDGE('',*,*,#169,.T.);
#46=ORIENTED_EDGE('',*,*,#170,.F.);
#47=ORIENTED_EDGE('',*,*,#171,.T.);
#48=ORIENTED_EDGE('',*,*,#172,.F.);
#49=ORIENTED_EDGE('',*,*,#173,.T.);
#50=ORIENTED_EDGE('',*,*,#174,.T.);
#51=ORIENTED_EDGE('',*,*,#175,.T.);
#52=ORIENTED_EDGE('',*,*,#176,.F.);
#53=ORIENTED_EDGE('',*,*,#177,.T.);
#54=ORIENTED_EDGE('',*,*,#178,.F.);
#55=ORIENTED_EDGE('',*,*,#179,.T.);
#56=ORIENTED_EDGE('',*,*,#180,.F.);
#57=ORIENTED_EDGE('',*,*,#181,.T.);
#58=ORIENTED_EDGE('',*,*,#182,.F.);
#59=ORIENTED_EDGE('',*,*,#183,.T.);
#60=ORIENTED_EDGE('',*,*,#184,.F.);
#61=ORIENTED_EDGE('',*,*,#185,.T.);
#62=ORIENTED_EDGE('',*,*,#186,.T.);
#63=ORIENTED_EDGE('',*,*,#187,.T.);
#64=ORIENTED_EDGE('',*,*,#170,.T.);
#65=ORIENTED_EDGE('',*,*,#188,.T.);
#66=ORIENTED_EDGE('',*,*,#184,.T.);
#67=ORIENTED_EDGE('',*,*,#189,.T.);
#68=ORIENTED_EDGE('',*,*,#162,.F.);
#69=ORIENTED_EDGE('',*,*,#190,.T.);
#70=ORIENTED_EDGE('',*,*,#174,.F.);
#71=ORIENTED_EDGE('',*,*,#191,.T.);
#72=ORIENTED_EDGE('',*,*,#176,.T.);
#73=ORIENTED_EDGE('',*,*,#178,.T.);
#74=ORIENTED_EDGE('',*,*,#180,.T.);
#75=ORIENTED_EDGE('',*,*,#182,.T.);
#76=ORIENTED_EDGE('',*,*,#192,.F.);
#77=ORIENTED_EDGE('',*,*,#193,.T.);
#78=ORIENTED_EDGE('',*,*,#194,.F.);
#79=ORIENTED_EDGE('',*,*,#195,.T.);
#80=ORIENTED_EDGE('',*,*,#196,.T.);
#81=ORIENTED_EDGE('',*,*,#197,.T.);
#82=ORIENTED_EDGE('',*,*,#198,.T.);
#83=ORIENTED_EDGE('',*,*,#199,.T.);
#84=ORIENTED_EDGE('',*,*,#194,.T.);
#85=ORIENTED_EDGE('',*,*,#200,.T.);
#86=ORIENTED_EDGE('',*,*,#201,.F.);
#87=ORIENTED_EDGE('',*,*,#202,.T.);
#88=ORIENTED_EDGE('',*,*,#203,.F.);
#89=ORIENTED_EDGE('',*,*,#204,.F.);
#90=ORIENTED_EDGE('',*,*,#205,.F.);
#91=ORIENTED_EDGE('',*,*,#201,.T.);
#92=ORIENTED_EDGE('',*,*,#206,.F.);
#93=ORIENTED_EDGE('',*,*,#196,.F.);
#94=ORIENTED_EDGE('',*,*,#207,.F.);
#95=ORIENTED_EDGE('',*,*,#204,.T.);
#96=ORIENTED_EDGE('',*,*,#183,.F.);
#97=ORIENTED_EDGE('',*,*,#181,.F.);
#98=ORIENTED_EDGE('',*,*,#179,.F.);
#99=ORIENTED_EDGE('',*,*,#177,.F.);
#100=ORIENTED_EDGE('',*,*,#195,.F.);
#101=ORIENTED_EDGE('',*,*,#202,.F.);
#102=ORIENTED_EDGE('',*,*,#205,.T.);
#103=ORIENTED_EDGE('',*,*,#207,.T.);
#104=ORIENTED_EDGE('',*,*,#186,.F.);
#105=ORIENTED_EDGE('',*,*,#208,.T.);
#106=ORIENTED_EDGE('',*,*,#168,.F.);
#107=ORIENTED_EDGE('',*,*,#209,.T.);
#108=ORIENTED_EDGE('',*,*,#172,.T.);
#109=ORIENTED_EDGE('',*,*,#210,.T.);
#110=ORIENTED_EDGE('',*,*,#160,.T.);
#111=ORIENTED_EDGE('',*,*,#211,.T.);
#112=ORIENTED_EDGE('',*,*,#212,.F.);
#113=ORIENTED_EDGE('',*,*,#213,.T.);
#114=ORIENTED_EDGE('',*,*,#214,.T.);
#115=ORIENTED_EDGE('',*,*,#197,.F.);
#116=ORIENTED_EDGE('',*,*,#206,.T.);
#117=ORIENTED_EDGE('',*,*,#203,.T.);
#118=ORIENTED_EDGE('',*,*,#200,.F.);
#119=ORIENTED_EDGE('',*,*,#193,.F.);
#120=ORIENTED_EDGE('',*,*,#208,.F.);
#121=ORIENTED_EDGE('',*,*,#185,.F.);
#122=ORIENTED_EDGE('',*,*,#188,.F.);
#123=ORIENTED_EDGE('',*,*,#169,.F.);
#124=ORIENTED_EDGE('',*,*,#209,.F.);
#125=ORIENTED_EDGE('',*,*,#171,.F.);
#126=ORIENTED_EDGE('',*,*,#191,.F.);
#127=ORIENTED_EDGE('',*,*,#173,.F.);
#128=ORIENTED_EDGE('',*,*,#210,.F.);
#129=ORIENTED_EDGE('',*,*,#175,.F.);
#130=ORIENTED_EDGE('',*,*,#190,.F.);
#131=ORIENTED_EDGE('',*,*,#161,.F.);
#132=ORIENTED_EDGE('',*,*,#211,.F.);
#133=ORIENTED_EDGE('',*,*,#163,.F.);
#134=ORIENTED_EDGE('',*,*,#189,.F.);
#135=ORIENTED_EDGE('',*,*,#187,.F.);
#136=ORIENTED_EDGE('',*,*,#215,.T.);
#137=ORIENTED_EDGE('',*,*,#164,.F.);
#138=ORIENTED_EDGE('',*,*,#216,.F.);
#139=ORIENTED_EDGE('',*,*,#199,.F.);
#140=ORIENTED_EDGE('',*,*,#192,.T.);
#141=ORIENTED_EDGE('',*,*,#216,.T.);
#142=ORIENTED_EDGE('',*,*,#167,.T.);
#143=ORIENTED_EDGE('',*,*,#217,.F.);
#144=ORIENTED_EDGE('',*,*,#218,.F.);
#145=ORIENTED_EDGE('',*,*,#212,.T.);
#146=ORIENTED_EDGE('',*,*,#166,.T.);
#147=ORIENTED_EDGE('',*,*,#219,.F.);
#148=ORIENTED_EDGE('',*,*,#220,.F.);
#149=ORIENTED_EDGE('',*,*,#217,.T.);
#150=ORIENTED_EDGE('',*,*,#214,.F.);
#151=ORIENTED_EDGE('',*,*,#221,.T.);
#152=ORIENTED_EDGE('',*,*,#219,.T.);
#153=ORIENTED_EDGE('',*,*,#165,.F.);
#154=ORIENTED_EDGE('',*,*,#215,.F.);
#155=ORIENTED_EDGE('',*,*,#198,.F.);
#156=ORIENTED_EDGE('',*,*,#218,.T.);
#157=ORIENTED_EDGE('',*,*,#220,.T.);
#158=ORIENTED_EDGE('',*,*,#221,.F.);
#159=ORIENTED_EDGE('',*,*,#213,.F.);
#160=EDGE_CURVE('',#222,#223,#266,.T.);
#161=EDGE_CURVE('',#222,#224,#267,.T.);
#162=EDGE_CURVE('',#224,#225,#268,.T.);
#163=EDGE_CURVE('',#225,#223,#269,.F.);
#164=EDGE_CURVE('',#226,#227,#270,.T.);
#165=EDGE_CURVE('',#227,#228,#271,.T.);
#166=EDGE_CURVE('',#229,#228,#272,.T.);
#167=EDGE_CURVE('',#226,#229,#273,.T.);
#168=EDGE_CURVE('',#230,#231,#274,.T.);
#169=EDGE_CURVE('',#231,#232,#275,.T.);
#170=EDGE_CURVE('',#233,#232,#276,.T.);
#171=EDGE_CURVE('',#233,#230,#277,.F.);
#172=EDGE_CURVE('',#234,#235,#278,.T.);
#173=EDGE_CURVE('',#234,#236,#279,.T.);
#174=EDGE_CURVE('',#236,#237,#280,.T.);
#175=EDGE_CURVE('',#237,#235,#281,.F.);
#176=EDGE_CURVE('',#238,#238,#12,.T.);
#177=EDGE_CURVE('',#239,#239,#13,.T.);
#178=EDGE_CURVE('',#240,#240,#14,.T.);
#179=EDGE_CURVE('',#241,#241,#15,.T.);
#180=EDGE_CURVE('',#242,#242,#16,.T.);
#181=EDGE_CURVE('',#243,#243,#17,.T.);
#182=EDGE_CURVE('',#244,#244,#18,.T.);
#183=EDGE_CURVE('',#245,#245,#19,.T.);
#184=EDGE_CURVE('',#246,#247,#282,.T.);
#185=EDGE_CURVE('',#246,#248,#283,.F.);
#186=EDGE_CURVE('',#248,#249,#284,.T.);
#187=EDGE_CURVE('',#249,#247,#285,.T.);
#188=EDGE_CURVE('',#232,#246,#20,.F.);
#189=EDGE_CURVE('',#247,#225,#21,.F.);
#190=EDGE_CURVE('',#224,#237,#22,.F.);
#191=EDGE_CURVE('',#236,#233,#23,.F.);
#192=EDGE_CURVE('',#250,#251,#286,.T.);
#193=EDGE_CURVE('',#250,#252,#287,.T.);
#194=EDGE_CURVE('',#253,#252,#288,.T.);
#195=EDGE_CURVE('',#253,#254,#289,.T.);
#196=EDGE_CURVE('',#254,#255,#290,.T.);
#197=EDGE_CURVE('',#255,#256,#291,.T.);
#198=EDGE_CURVE('',#256,#257,#292,.T.);
#199=EDGE_CURVE('',#257,#251,#293,.T.);
#200=EDGE_CURVE('',#252,#258,#294,.T.);
#201=EDGE_CURVE('',#259,#258,#295,.T.);
#202=EDGE_CURVE('',#259,#253,#296,.T.);
#203=EDGE_CURVE('',#260,#258,#297,.T.);
#204=EDGE_CURVE('',#261,#260,#298,.T.);
#205=EDGE_CURVE('',#259,#261,#299,.T.);
#206=EDGE_CURVE('',#255,#260,#300,.T.);
#207=EDGE_CURVE('',#261,#254,#301,.T.);
#208=EDGE_CURVE('',#248,#231,#24,.T.);
#209=EDGE_CURVE('',#230,#234,#25,.T.);
#210=EDGE_CURVE('',#235,#222,#26,.T.);
#211=EDGE_CURVE('',#223,#249,#27,.T.);
#212=EDGE_CURVE('',#262,#250,#302,.T.);
#213=EDGE_CURVE('',#262,#263,#303,.T.);
#214=EDGE_CURVE('',#263,#256,#304,.T.);
#215=EDGE_CURVE('',#257,#227,#305,.T.);
#216=EDGE_CURVE('',#251,#226,#306,.T.);
#217=EDGE_CURVE('',#264,#229,#307,.T.);
#218=EDGE_CURVE('',#262,#264,#308,.T.);
#219=EDGE_CURVE('',#265,#228,#309,.T.);
#220=EDGE_CURVE('',#264,#265,#310,.T.);
#221=EDGE_CURVE('',#263,#265,#311,.T.);
#222=VERTEX_POINT('',#658);
#223=VERTEX_POINT('',#659);
#224=VERTEX_POINT('',#661);
#225=VERTEX_POINT('',#663);
#226=VERTEX_POINT('',#666);
#227=VERTEX_POINT('',#667);
#228=VERTEX_POINT('',#669);
#229=VERTEX_POINT('',#671);
#230=VERTEX_POINT('',#675);
#231=VERTEX_POINT('',#676);
#232=VERTEX_POINT('',#678);
#233=VERTEX_POINT('',#680);
#234=VERTEX_POINT('',#684);
#235=VERTEX_POINT('',#685);
#236=VERTEX_POINT('',#687);
#237=VERTEX_POINT('',#689);
#238=VERTEX_POINT('',#693);
#239=VERTEX_POINT('',#695);
#240=VERTEX_POINT('',#698);
#241=VERTEX_POINT('',#700);
#242=VERTEX_POINT('',#703);
#243=VERTEX_POINT('',#705);
#244=VERTEX_POINT('',#708);
#245=VERTEX_POINT('',#710);
#246=VERTEX_POINT('',#713);
#247=VERTEX_POINT('',#714);
#248=VERTEX_POINT('',#716);
#249=VERTEX_POINT('',#718);
#250=VERTEX_POINT('',#727);
#251=VERTEX_POINT('',#728);
#252=VERTEX_POINT('',#730);
#253=VERTEX_POINT('',#732);
#254=VERTEX_POINT('',#734);
#255=VERTEX_POINT('',#736);
#256=VERTEX_POINT('',#738);
#257=VERTEX_POINT('',#740);
#258=VERTEX_POINT('',#744);
#259=VERTEX_POINT('',#746);
#260=VERTEX_POINT('',#750);
#261=VERTEX_POINT('',#752);
#262=VERTEX_POINT('',#764);
#263=VERTEX_POINT('',#766);
#264=VERTEX_POINT('',#777);
#265=VERTEX_POINT('',#781);
#266=LINE('',#657,#312);
#267=LINE('',#660,#313);
#268=LINE('',#662,#314);
#269=LINE('',#664,#315);
#270=LINE('',#665,#316);
#271=LINE('',#668,#317);
#272=LINE('',#670,#318);
#273=LINE('',#672,#319);
#274=LINE('',#674,#320);
#275=LINE('',#677,#321);
#276=LINE('',#679,#322);
#277=LINE('',#681,#323);
#278=LINE('',#683,#324);
#279=LINE('',#686,#325);
#280=LINE('',#688,#326);
#281=LINE('',#690,#327);
#282=LINE('',#712,#328);
#283=LINE('',#715,#329);
#284=LINE('',#717,#330);
#285=LINE('',#719,#331);
#286=LINE('',#726,#332);
#287=LINE('',#729,#333);
#288=LINE('',#731,#334);
#289=LINE('',#733,#335);
#290=LINE('',#735,#336);
#291=LINE('',#737,#337);
#292=LINE('',#739,#338);
#293=LINE('',#741,#339);
#294=LINE('',#743,#340);
#295=LINE('',#745,#341);
#296=LINE('',#747,#342);
#297=LINE('',#749,#343);
#298=LINE('',#751,#344);
#299=LINE('',#753,#345);
#300=LINE('',#755,#346);
#301=LINE('',#756,#347);
#302=LINE('',#763,#348);
#303=LINE('',#765,#349);
#304=LINE('',#767,#350);
#305=LINE('',#773,#351);
#306=LINE('',#774,#352);
#307=LINE('',#776,#353);
#308=LINE('',#778,#354);
#309=LINE('',#780,#355);
#310=LINE('',#782,#356);
#311=LINE('',#784,#357);
#312=VECTOR('',#531,1000.);
#313=VECTOR('',#532,1000.);
#314=VECTOR('',#533,1000.);
#315=VECTOR('',#534,1000.);
#316=VECTOR('',#535,1000.);
#317=VECTOR('',#536,1000.);
#318=VECTOR('',#537,1000.);
#319=VECTOR('',#538,1000.);
#320=VECTOR('',#541,1000.);
#321=VECTOR('',#542,1000.);
#322=VECTOR('',#543,1000.);
#323=VECTOR('',#544,1000.);
#324=VECTOR('',#547,1000.);
#325=VECTOR('',#548,1000.);
#326=VECTOR('',#549,1000.);
#327=VECTOR('',#550,1000.);
#328=VECTOR('',#577,1000.);
#329=VECTOR('',#578,1000.);
#330=VECTOR('',#579,1000.);
#331=VECTOR('',#580,1000.);
#332=VECTOR('',#593,1000.);
#333=VECTOR('',#594,1000.);
#334=VECTOR('',#595,1000.);
#335=VECTOR('',#596,1000.);
#336=VECTOR('',#597,1000.);
#337=VECTOR('',#598,1000.);
#338=VECTOR('',#599,1000.);
#339=VECTOR('',#600,1000.);
#340=VECTOR('',#603,1000.);
#341=VECTOR('',#604,1000.);
#342=VECTOR('',#605,1000.);
#343=VECTOR('',#608,1000.);
#344=VECTOR('',#609,1000.);
#345=VECTOR('',#610,1000.);
#346=VECTOR('',#613,1000.);
#347=VECTOR('',#614,1000.);
#348=VECTOR('',#627,1000.);
#349=VECTOR('',#628,1000.);
#350=VECTOR('',#629,1000.);
#351=VECTOR('',#640,1000.);
#352=VECTOR('',#641,1000.);
#353=VECTOR('',#644,1000.);
#354=VECTOR('',#645,1000.);
#355=VECTOR('',#648,1000.);
#356=VECTOR('',#649,1000.);
#357=VECTOR('',#652,1000.);
#358=EDGE_LOOP('',(#36,#37,#38,#39));
#359=EDGE_LOOP('',(#40,#41,#42,#43));
#360=EDGE_LOOP('',(#44,#45,#46,#47));
#361=EDGE_LOOP('',(#48,#49,#50,#51));
#362=EDGE_LOOP('',(#52));
#363=EDGE_LOOP('',(#53));
#364=EDGE_LOOP('',(#54));
#365=EDGE_LOOP('',(#55));
#366=EDGE_LOOP('',(#56));
#367=EDGE_LOOP('',(#57));
#368=EDGE_LOOP('',(#58));
#369=EDGE_LOOP('',(#59));
#370=EDGE_LOOP('',(#60,#61,#62,#63));
#371=EDGE_LOOP('',(#64,#65,#66,#67,#68,#69,#70,#71));
#372=EDGE_LOOP('',(#72));
#373=EDGE_LOOP('',(#73));
#374=EDGE_LOOP('',(#74));
#375=EDGE_LOOP('',(#75));
#376=EDGE_LOOP('',(#76,#77,#78,#79,#80,#81,#82,#83));
#377=EDGE_LOOP('',(#84,#85,#86,#87));
#378=EDGE_LOOP('',(#88,#89,#90,#91));
#379=EDGE_LOOP('',(#92,#93,#94,#95));
#380=EDGE_LOOP('',(#96));
#381=EDGE_LOOP('',(#97));
#382=EDGE_LOOP('',(#98));
#383=EDGE_LOOP('',(#99));
#384=EDGE_LOOP('',(#100,#101,#102,#103));
#385=EDGE_LOOP('',(#104,#105,#106,#107,#108,#109,#110,#111));
#386=EDGE_LOOP('',(#112,#113,#114,#115,#116,#117,#118,#119));
#387=EDGE_LOOP('',(#120,#121,#122,#123));
#388=EDGE_LOOP('',(#124,#125,#126,#127));
#389=EDGE_LOOP('',(#128,#129,#130,#131));
#390=EDGE_LOOP('',(#132,#133,#134,#135));
#391=EDGE_LOOP('',(#136,#137,#138,#139));
#392=EDGE_LOOP('',(#140,#141,#142,#143,#144,#145));
#393=EDGE_LOOP('',(#146,#147,#148,#149));
#394=EDGE_LOOP('',(#150,#151,#152,#153,#154,#155));
#395=EDGE_LOOP('',(#156,#157,#158,#159));
#396=FACE_BOUND('',#358,.T.);
#397=FACE_BOUND('',#359,.T.);
#398=FACE_BOUND('',#360,.T.);
#399=FACE_BOUND('',#361,.T.);
#400=FACE_BOUND('',#362,.T.);
#401=FACE_BOUND('',#363,.T.);
#402=FACE_BOUND('',#364,.T.);
#403=FACE_BOUND('',#365,.T.);
#404=FACE_BOUND('',#366,.T.);
#405=FACE_BOUND('',#367,.T.);
#406=FACE_BOUND('',#368,.T.);
#407=FACE_BOUND('',#369,.T.);
#408=FACE_BOUND('',#370,.T.);
#409=FACE_BOUND('',#371,.T.);
#410=FACE_BOUND('',#372,.T.);
#411=FACE_BOUND('',#373,.T.);
#412=FACE_BOUND('',#374,.T.);
#413=FACE_BOUND('',#375,.T.);
#414=FACE_BOUND('',#376,.T.);
#415=FACE_BOUND('',#377,.T.);
#416=FACE_BOUND('',#378,.T.);
#417=FACE_BOUND('',#379,.T.);
#418=FACE_BOUND('',#380,.T.);
#419=FACE_BOUND('',#381,.T.);
#420=FACE_BOUND('',#382,.T.);
#421=FACE_BOUND('',#383,.T.);
#422=FACE_BOUND('',#384,.T.);
#423=FACE_BOUND('',#385,.T.);
#424=FACE_BOUND('',#386,.T.);
#425=FACE_BOUND('',#387,.T.);
#426=FACE_BOUND('',#388,.T.);
#427=FACE_BOUND('',#389,.T.);
#428=FACE_BOUND('',#390,.T.);
#429=FACE_BOUND('',#391,.T.);
#430=FACE_BOUND('',#392,.T.);
#431=FACE_BOUND('',#393,.T.);
#432=FACE_BOUND('',#394,.T.);
#433=FACE_BOUND('',#395,.T.);
#434=PLANE('',#487);
#435=PLANE('',#488);
#436=PLANE('',#489);
#437=PLANE('',#502);
#438=PLANE('',#503);
#439=PLANE('',#508);
#440=PLANE('',#509);
#441=PLANE('',#510);
#442=PLANE('',#511);
#443=PLANE('',#512);
#444=PLANE('',#517);
#445=PLANE('',#522);
#446=PLANE('',#523);
#447=PLANE('',#524);
#448=PLANE('',#525);
#449=PLANE('',#526);
#450=ADVANCED_FACE('',(#396,#397),#434,.F.);
#451=ADVANCED_FACE('',(#398),#435,.T.);
#452=ADVANCED_FACE('',(#399),#436,.F.);
#453=ADVANCED_FACE('',(#400,#401),#28,.F.);
#454=ADVANCED_FACE('',(#402,#403),#29,.F.);
#455=ADVANCED_FACE('',(#404,#405),#30,.F.);
#456=ADVANCED_FACE('',(#406,#407),#31,.F.);
#457=ADVANCED_FACE('',(#408),#437,.T.);
#458=ADVANCED_FACE('',(#409,#410,#411,#412,#413),#438,.F.);
#459=ADVANCED_FACE('',(#414),#439,.T.);
#460=ADVANCED_FACE('',(#415),#440,.T.);
#461=ADVANCED_FACE('',(#416),#441,.F.);
#462=ADVANCED_FACE('',(#417),#442,.F.);
#463=ADVANCED_FACE('',(#418,#419,#420,#421,#422,#423),#443,.T.);
#464=ADVANCED_FACE('',(#424),#444,.T.);
#465=ADVANCED_FACE('',(#425),#32,.T.);
#466=ADVANCED_FACE('',(#426),#33,.T.);
#467=ADVANCED_FACE('',(#427),#34,.T.);
#468=ADVANCED_FACE('',(#428),#35,.T.);
#469=ADVANCED_FACE('',(#429),#445,.T.);
#470=ADVANCED_FACE('',(#430),#446,.F.);
#471=ADVANCED_FACE('',(#431),#447,.F.);
#472=ADVANCED_FACE('',(#432),#448,.T.);
#473=ADVANCED_FACE('',(#433),#449,.T.);
#474=CLOSED_SHELL('',(#450,#451,#452,#453,#454,#455,#456,#457,#458,#459,
#460,#461,#462,#463,#464,#465,#466,#467,#468,#469,#470,#471,#472,#473));
#475=STYLED_ITEM('',(#476),#483);
#476=PRESENTATION_STYLE_ASSIGNMENT((#477));
#477=SURFACE_STYLE_USAGE(.BOTH.,#478);
#478=SURFACE_SIDE_STYLE('',(#479));
#479=SURFACE_STYLE_FILL_AREA(#480);
#480=FILL_AREA_STYLE('',(#481));
#481=FILL_AREA_STYLE_COLOUR('',#482);
#482=DRAUGHTING_PRE_DEFINED_COLOUR('red');
#483=MANIFOLD_SOLID_BREP('Part 202',#474);
#484=SHAPE_DEFINITION_REPRESENTATION(#792,#485);
#485=SHAPE_REPRESENTATION('Part 202',(#486),#787);
#486=AXIS2_PLACEMENT_3D('',#655,#527,#528);
#487=AXIS2_PLACEMENT_3D('',#656,#529,#530);
#488=AXIS2_PLACEMENT_3D('',#673,#539,#540);
#489=AXIS2_PLACEMENT_3D('',#682,#545,#546);
#490=AXIS2_PLACEMENT_3D('',#691,#551,#552);
#491=AXIS2_PLACEMENT_3D('',#692,#553,#554);
#492=AXIS2_PLACEMENT_3D('',#694,#555,#556);
#493=AXIS2_PLACEMENT_3D('',#696,#557,#558);
#494=AXIS2_PLACEMENT_3D('',#697,#559,#560);
#495=AXIS2_PLACEMENT_3D('',#699,#561,#562);
#496=AXIS2_PLACEMENT_3D('',#701,#563,#564);
#497=AXIS2_PLACEMENT_3D('',#702,#565,#566);
#498=AXIS2_PLACEMENT_3D('',#704,#567,#568);
#499=AXIS2_PLACEMENT_3D('',#706,#569,#570);
#500=AXIS2_PLACEMENT_3D('',#707,#571,#572);
#501=AXIS2_PLACEMENT_3D('',#709,#573,#574);
#502=AXIS2_PLACEMENT_3D('',#711,#575,#576);
#503=AXIS2_PLACEMENT_3D('',#720,#581,#582);
#504=AXIS2_PLACEMENT_3D('',#721,#583,#584);
#505=AXIS2_PLACEMENT_3D('',#722,#585,#586);
#506=AXIS2_PLACEMENT_3D('',#723,#587,#588);
#507=AXIS2_PLACEMENT_3D('',#724,#589,#590);
#508=AXIS2_PLACEMENT_3D('',#725,#591,#592);
#509=AXIS2_PLACEMENT_3D('',#742,#601,#602);
#510=AXIS2_PLACEMENT_3D('',#748,#606,#607);
#511=AXIS2_PLACEMENT_3D('',#754,#611,#612);
#512=AXIS2_PLACEMENT_3D('',#757,#615,#616);
#513=AXIS2_PLACEMENT_3D('',#758,#617,#618);
#514=AXIS2_PLACEMENT_3D('',#759,#619,#620);
#515=AXIS2_PLACEMENT_3D('',#760,#621,#622);
#516=AXIS2_PLACEMENT_3D('',#761,#623,#624);
#517=AXIS2_PLACEMENT_3D('',#762,#625,#626);
#518=AXIS2_PLACEMENT_3D('',#768,#630,#631);
#519=AXIS2_PLACEMENT_3D('',#769,#632,#633);
#520=AXIS2_PLACEMENT_3D('',#770,#634,#635);
#521=AXIS2_PLACEMENT_3D('',#771,#636,#637);
#522=AXIS2_PLACEMENT_3D('',#772,#638,#639);
#523=AXIS2_PLACEMENT_3D('',#775,#642,#643);
#524=AXIS2_PLACEMENT_3D('',#779,#646,#647);
#525=AXIS2_PLACEMENT_3D('',#783,#650,#651);
#526=AXIS2_PLACEMENT_3D('',#785,#653,#654);
#527=DIRECTION('',(0.,0.,1.));
#528=DIRECTION('',(1.,0.,0.));
#529=DIRECTION('',(0.,1.,0.));
#530=DIRECTION('',(0.,0.,1.));
#531=DIRECTION('',(1.,0.,0.));
#532=DIRECTION('',(0.,0.,-1.));
#533=DIRECTION('',(1.,0.,0.));
#534=DIRECTION('',(0.,0.,-1.));
#535=DIRECTION('',(1.,0.,0.));
#536=DIRECTION('',(0.,0.,-1.));
#537=DIRECTION('',(1.,0.,0.));
#538=DIRECTION('',(0.,0.,-1.));
#539=DIRECTION('',(0.,1.,0.));
#540=DIRECTION('',(0.,0.,1.));
#541=DIRECTION('',(1.,0.,0.));
#542=DIRECTION('',(0.,0.,-1.));
#543=DIRECTION('',(1.,0.,0.));
#544=DIRECTION('',(0.,0.,-1.));
#545=DIRECTION('',(1.,0.,0.));
#546=DIRECTION('',(0.,0.,-1.));
#547=DIRECTION('',(0.,-1.,0.));
#548=DIRECTION('',(0.,0.,-1.));
#549=DIRECTION('',(0.,-1.,0.));
#550=DIRECTION('',(0.,0.,-1.));
#551=DIRECTION('',(0.,0.,-1.));
#552=DIRECTION('',(-1.,0.,0.));
#553=DIRECTION('',(0.,0.,1.));
#554=DIRECTION('',(1.,0.,0.));
#555=DIRECTION('',(0.,0.,1.));
#556=DIRECTION('',(1.,0.,0.));
#557=DIRECTION('',(0.,0.,-1.));
#558=DIRECTION('',(-1.,0.,0.));
#559=DIRECTION('',(0.,0.,1.));
#560=DIRECTION('',(1.,0.,0.));
#561=DIRECTION('',(0.,0.,1.));
#562=DIRECTION('',(1.,0.,0.));
#563=DIRECTION('',(0.,0.,-1.));
#564=DIRECTION('',(-1.,0.,0.));
#565=DIRECTION('',(0.,0.,1.));
#566=DIRECTION('',(1.,0.,0.));
#567=DIRECTION('',(0.,0.,1.));
#568=DIRECTION('',(1.,0.,0.));
#569=DIRECTION('',(0.,0.,-1.));
#570=DIRECTION('',(-1.,0.,0.));
#571=DIRECTION('',(0.,0.,1.));
#572=DIRECTION('',(1.,0.,0.));
#573=DIRECTION('',(0.,0.,1.));
#574=DIRECTION('',(1.,0.,0.));
#575=DIRECTION('',(1.,0.,0.));
#576=DIRECTION('',(0.,0.,-1.));
#577=DIRECTION('',(0.,-1.,0.));
#578=DIRECTION('',(0.,0.,-1.));
#579=DIRECTION('',(0.,-1.,0.));
#580=DIRECTION('',(0.,0.,-1.));
#581=DIRECTION('',(0.,0.,1.));
#582=DIRECTION('',(1.,0.,0.));
#583=DIRECTION('',(0.,0.,1.));
#584=DIRECTION('',(1.,0.,0.));
#585=DIRECTION('',(0.,0.,1.));
#586=DIRECTION('',(1.,0.,0.));
#587=DIRECTION('',(0.,0.,1.));
#588=DIRECTION('',(1.,0.,0.));
#589=DIRECTION('',(0.,0.,1.));
#590=DIRECTION('',(1.,0.,0.));
#591=DIRECTION('',(0.,1.,0.));
#592=DIRECTION('',(0.,0.,1.));
#593=DIRECTION('',(0.,0.,1.));
#594=DIRECTION('',(-1.,0.,0.));
#595=DIRECTION('',(0.,0.,-1.));
#596=DIRECTION('',(1.,0.,0.));
#597=DIRECTION('',(0.,0.,-1.));
#598=DIRECTION('',(-1.,0.,0.));
#599=DIRECTION('',(0.,0.,1.));
#600=DIRECTION('',(-1.,0.,0.));
#601=DIRECTION('',(1.,0.,0.));
#602=DIRECTION('',(0.,0.,-1.));
#603=DIRECTION('',(0.,1.,0.));
#604=DIRECTION('',(0.,0.,-1.));
#605=DIRECTION('',(0.,-1.,0.));
#606=DIRECTION('',(0.,1.,0.));
#607=DIRECTION('',(0.,0.,1.));
#608=DIRECTION('',(-1.,0.,0.));
#609=DIRECTION('',(0.,0.,-1.));
#610=DIRECTION('',(1.,0.,0.));
#611=DIRECTION('',(1.,0.,0.));
#612=DIRECTION('',(0.,0.,-1.));
#613=DIRECTION('',(0.,1.,0.));
#614=DIRECTION('',(0.,-1.,0.));
#615=DIRECTION('',(0.,0.,1.));
#616=DIRECTION('',(1.,0.,0.));
#617=DIRECTION('',(0.,0.,1.));
#618=DIRECTION('',(1.,0.,0.));
#619=DIRECTION('',(0.,0.,1.));
#620=DIRECTION('',(1.,0.,0.));
#621=DIRECTION('',(0.,0.,1.));
#622=DIRECTION('',(1.,0.,0.));
#623=DIRECTION('',(0.,0.,1.));
#624=DIRECTION('',(1.,0.,0.));
#625=DIRECTION('',(0.,0.,1.));
#626=DIRECTION('',(1.,0.,0.));
#627=DIRECTION('',(0.,-1.,0.));
#628=DIRECTION('',(1.,0.,0.));
#629=DIRECTION('',(0.,-1.,0.));
#630=DIRECTION('',(0.,0.,-1.));
#631=DIRECTION('',(-1.,0.,0.));
#632=DIRECTION('',(0.,0.,1.));
#633=DIRECTION('',(1.,0.,0.));
#634=DIRECTION('',(0.,0.,-1.));
#635=DIRECTION('',(-1.,0.,0.));
#636=DIRECTION('',(0.,0.,1.));
#637=DIRECTION('',(1.,0.,0.));
#638=DIRECTION('',(0.,0.,-1.));
#639=DIRECTION('',(-1.,0.,0.));
#640=DIRECTION('',(0.,-1.,0.));
#641=DIRECTION('',(0.,-1.,0.));
#642=DIRECTION('',(-1.,0.,0.));
#643=DIRECTION('',(0.,0.,1.));
#644=DIRECTION('',(0.,-1.,0.));
#645=DIRECTION('',(0.,0.,-1.));
#646=DIRECTION('',(0.,0.,-1.));
#647=DIRECTION('',(-1.,0.,0.));
#648=DIRECTION('',(0.,-1.,0.));
#649=DIRECTION('',(1.,0.,0.));
#650=DIRECTION('',(-1.,0.,0.));
#651=DIRECTION('',(0.,0.,1.));
#652=DIRECTION('',(0.,0.,-1.));
#653=DIRECTION('',(0.,-1.,0.));
#654=DIRECTION('',(1.,0.,0.));
#655=CARTESIAN_POINT('',(0.,0.,0.));
#656=CARTESIAN_POINT('',(113.288682146175,-164.9,3.));
#657=CARTESIAN_POINT('',(113.288682146175,-164.9,10.));
#658=CARTESIAN_POINT('',(71.0886821461746,-164.9,10.));
#659=CARTESIAN_POINT('',(155.488682146175,-164.9,10.));
#660=CARTESIAN_POINT('',(71.0886821461746,-164.9,3.));
#661=CARTESIAN_POINT('',(71.0886821461746,-164.9,0.));
#662=CARTESIAN_POINT('',(113.288682146175,-164.9,0.));
#663=CARTESIAN_POINT('',(155.488682146175,-164.9,0.));
#664=CARTESIAN_POINT('',(155.488682146175,-164.9,10.));
#665=CARTESIAN_POINT('',(121.417578309774,-164.9,6.55567087233067));
#666=CARTESIAN_POINT('',(114.796243607998,-164.9,6.55567087233067));
#667=CARTESIAN_POINT('',(128.038913011551,-164.9,6.55567087233067));
#668=CARTESIAN_POINT('',(128.038913011551,-164.9,4.27860445820212));
#669=CARTESIAN_POINT('',(128.038913011551,-164.9,2.00153804407357));
#670=CARTESIAN_POINT('',(121.417578309774,-164.9,2.00153804407357));
#671=CARTESIAN_POINT('',(114.796243607998,-164.9,2.00153804407357));
#672=CARTESIAN_POINT('',(114.796243607998,-164.9,4.27860445820212));
#673=CARTESIAN_POINT('',(113.288682146175,-47.,3.));
#674=CARTESIAN_POINT('',(113.288682146175,-47.,10.));
#675=CARTESIAN_POINT('',(71.0886821461746,-47.,10.));
#676=CARTESIAN_POINT('',(155.488682146175,-47.,10.));
#677=CARTESIAN_POINT('',(155.488682146175,-47.,3.));
#678=CARTESIAN_POINT('',(155.488682146175,-47.,0.));
#679=CARTESIAN_POINT('',(113.288682146175,-47.,0.));
#680=CARTESIAN_POINT('',(71.0886821461746,-47.,0.));
#681=CARTESIAN_POINT('',(71.0886821461746,-47.,10.));
#682=CARTESIAN_POINT('',(66.0886821461746,-105.95,3.));
#683=CARTESIAN_POINT('',(66.0886821461746,-105.95,10.));
#684=CARTESIAN_POINT('',(66.0886821461746,-52.,10.));
#685=CARTESIAN_POINT('',(66.0886821461746,-159.9,10.));
#686=CARTESIAN_POINT('',(66.0886821461746,-52.,0.));
#687=CARTESIAN_POINT('',(66.0886821461746,-52.,0.));
#688=CARTESIAN_POINT('',(66.0886821461746,-105.95,0.));
#689=CARTESIAN_POINT('',(66.0886821461746,-159.9,0.));
#690=CARTESIAN_POINT('',(66.0886821461746,-159.9,3.));
#691=CARTESIAN_POINT('',(72.0886821461746,-53.,3.));
#692=CARTESIAN_POINT('',(72.0886821461746,-53.,0.));
#693=CARTESIAN_POINT('',(73.8886821461746,-53.,0.));
#694=CARTESIAN_POINT('',(72.0886821461746,-53.,10.));
#695=CARTESIAN_POINT('',(73.8886821461746,-53.,10.));
#696=CARTESIAN_POINT('',(72.0886821461746,-158.9,3.));
#697=CARTESIAN_POINT('',(72.0886821461746,-158.9,0.));
#698=CARTESIAN_POINT('',(73.8886821461746,-158.9,0.));
#699=CARTESIAN_POINT('',(72.0886821461746,-158.9,10.));
#700=CARTESIAN_POINT('',(73.8886821461746,-158.9,10.));
#701=CARTESIAN_POINT('',(154.488682146175,-53.,3.));
#702=CARTESIAN_POINT('',(154.488682146175,-53.,0.));
#703=CARTESIAN_POINT('',(156.288682146174,-53.,0.));
#704=CARTESIAN_POINT('',(154.488682146175,-53.,10.));
#705=CARTESIAN_POINT('',(156.288682146174,-53.,10.));
#706=CARTESIAN_POINT('',(154.488682146175,-158.9,3.));
#707=CARTESIAN_POINT('',(154.488682146175,-158.9,0.));
#708=CARTESIAN_POINT('',(156.288682146174,-158.9,0.));
#709=CARTESIAN_POINT('',(154.488682146175,-158.9,10.));
#710=CARTESIAN_POINT('',(156.288682146174,-158.9,10.));
#711=CARTESIAN_POINT('',(160.488682146175,-105.95,3.));
#712=CARTESIAN_POINT('',(160.488682146175,-105.95,0.));
#713=CARTESIAN_POINT('',(160.488682146175,-52.,0.));
#714=CARTESIAN_POINT('',(160.488682146175,-159.9,0.));
#715=CARTESIAN_POINT('',(160.488682146175,-52.,3.));
#716=CARTESIAN_POINT('',(160.488682146175,-52.,10.));
#717=CARTESIAN_POINT('',(160.488682146175,-105.95,10.));
#718=CARTESIAN_POINT('',(160.488682146175,-159.9,10.));
#719=CARTESIAN_POINT('',(160.488682146175,-159.9,0.));
#720=CARTESIAN_POINT('',(113.288682146175,-105.95,0.));
#721=CARTESIAN_POINT('',(155.488682146175,-52.,0.));
#722=CARTESIAN_POINT('',(155.488682146175,-159.9,0.));
#723=CARTESIAN_POINT('',(71.0886821461746,-159.9,0.));
#724=CARTESIAN_POINT('',(71.0886821461746,-52.,0.));
#725=CARTESIAN_POINT('',(113.,-154.8,10.));
#726=CARTESIAN_POINT('',(114.796243607998,-154.8,10.));
#727=CARTESIAN_POINT('',(114.796243607998,-154.8,3.));
#728=CARTESIAN_POINT('',(114.796243607998,-154.8,6.55567087233067));
#729=CARTESIAN_POINT('',(113.288682146175,-154.8,3.));
#730=CARTESIAN_POINT('',(75.7,-154.8,3.));
#731=CARTESIAN_POINT('',(75.7,-154.8,10.));
#732=CARTESIAN_POINT('',(75.7,-154.8,10.));
#733=CARTESIAN_POINT('',(113.,-154.8,10.));
#734=CARTESIAN_POINT('',(150.3,-154.8,10.));
#735=CARTESIAN_POINT('',(150.3,-154.8,10.));
#736=CARTESIAN_POINT('',(150.3,-154.8,3.));
#737=CARTESIAN_POINT('',(113.288682146175,-154.8,3.));
#738=CARTESIAN_POINT('',(128.038913011551,-154.8,3.));
#739=CARTESIAN_POINT('',(128.038913011551,-154.8,10.));
#740=CARTESIAN_POINT('',(128.038913011551,-154.8,6.55567087233067));
#741=CARTESIAN_POINT('',(113.,-154.8,6.55567087233067));
#742=CARTESIAN_POINT('',(75.7,-105.75,10.));
#743=CARTESIAN_POINT('',(75.7,-105.95,3.));
#744=CARTESIAN_POINT('',(75.7,-56.7,3.));
#745=CARTESIAN_POINT('',(75.7,-56.7,10.));
#746=CARTESIAN_POINT('',(75.7,-56.7,10.));
#747=CARTESIAN_POINT('',(75.7,-105.75,10.));
#748=CARTESIAN_POINT('',(113.,-56.7,10.));
#749=CARTESIAN_POINT('',(113.288682146175,-56.7,3.));
#750=CARTESIAN_POINT('',(150.3,-56.7,3.));
#751=CARTESIAN_POINT('',(150.3,-56.7,10.));
#752=CARTESIAN_POINT('',(150.3,-56.7,10.));
#753=CARTESIAN_POINT('',(113.,-56.7,10.));
#754=CARTESIAN_POINT('',(150.3,-105.75,10.));
#755=CARTESIAN_POINT('',(150.3,-105.95,3.));
#756=CARTESIAN_POINT('',(150.3,-105.75,10.));
#757=CARTESIAN_POINT('',(113.288682146175,-105.95,10.));
#758=CARTESIAN_POINT('',(155.488682146175,-52.,10.));
#759=CARTESIAN_POINT('',(71.0886821461746,-52.,10.));
#760=CARTESIAN_POINT('',(71.0886821461746,-159.9,10.));
#761=CARTESIAN_POINT('',(155.488682146175,-159.9,10.));
#762=CARTESIAN_POINT('',(113.288682146175,-105.95,3.));
#763=CARTESIAN_POINT('',(114.796243607998,-105.95,3.));
#764=CARTESIAN_POINT('',(114.796243607998,-139.9,3.));
#765=CARTESIAN_POINT('',(113.288682146175,-139.9,3.));
#766=CARTESIAN_POINT('',(128.038913011551,-139.9,3.));
#767=CARTESIAN_POINT('',(128.038913011551,-105.95,3.));
#768=CARTESIAN_POINT('',(155.488682146175,-52.,3.));
#769=CARTESIAN_POINT('',(71.0886821461746,-52.,3.));
#770=CARTESIAN_POINT('',(71.0886821461746,-159.9,3.));
#771=CARTESIAN_POINT('',(155.488682146175,-159.9,3.));
#772=CARTESIAN_POINT('',(121.417578309774,-139.9,6.55567087233067));
#773=CARTESIAN_POINT('',(128.038913011551,-139.9,6.55567087233067));
#774=CARTESIAN_POINT('',(114.796243607998,-139.9,6.55567087233067));
#775=CARTESIAN_POINT('',(114.796243607998,-139.9,4.27860445820212));
#776=CARTESIAN_POINT('',(114.796243607998,-139.9,2.00153804407357));
#777=CARTESIAN_POINT('',(114.796243607998,-139.9,2.00153804407357));
#778=CARTESIAN_POINT('',(114.796243607998,-139.9,4.27860445820212));
#779=CARTESIAN_POINT('',(121.417578309774,-139.9,2.00153804407357));
#780=CARTESIAN_POINT('',(128.038913011551,-139.9,2.00153804407357));
#781=CARTESIAN_POINT('',(128.038913011551,-139.9,2.00153804407357));
#782=CARTESIAN_POINT('',(121.417578309774,-139.9,2.00153804407357));
#783=CARTESIAN_POINT('',(128.038913011551,-139.9,4.27860445820212));
#784=CARTESIAN_POINT('',(128.038913011551,-139.9,4.27860445820212));
#785=CARTESIAN_POINT('',(113.288682146175,-139.9,5.));
#786=MECHANICAL_DESIGN_GEOMETRIC_PRESENTATION_REPRESENTATION('',(#475),
#787);
#787=(
GEOMETRIC_REPRESENTATION_CONTEXT(3)
GLOBAL_UNCERTAINTY_ASSIGNED_CONTEXT((#788))
GLOBAL_UNIT_ASSIGNED_CONTEXT((#791,#790,#789))
REPRESENTATION_CONTEXT('Part 202','TOP_LEVEL_ASSEMBLY_PART')
);
#788=UNCERTAINTY_MEASURE_WITH_UNIT(LENGTH_MEASURE(1.E-5),#791,
'DISTANCE_ACCURACY_VALUE','Maximum Tolerance applied to model');
#789=(
NAMED_UNIT(*)
SI_UNIT($,.STERADIAN.)
SOLID_ANGLE_UNIT()
);
#790=(
NAMED_UNIT(*)
PLANE_ANGLE_UNIT()
SI_UNIT($,.RADIAN.)
);
#791=(
LENGTH_UNIT()
NAMED_UNIT(*)
SI_UNIT(.MILLI.,.METRE.)
);
#792=PRODUCT_DEFINITION_SHAPE('','',#793);
#793=PRODUCT_DEFINITION('','',#795,#794);
#794=PRODUCT_DEFINITION_CONTEXT('',#801,'design');
#795=PRODUCT_DEFINITION_FORMATION_WITH_SPECIFIED_SOURCE('','',#797,
 .NOT_KNOWN.);
#796=PRODUCT_RELATED_PRODUCT_CATEGORY('','',(#797));
#797=PRODUCT('Part 202','Part 202','Part 202',(#799));
#798=PRODUCT_CATEGORY('','');
#799=PRODUCT_CONTEXT('',#801,'mechanical');
#800=APPLICATION_PROTOCOL_DEFINITION('international standard',
'ap242_managed_model_based_3d_engineering',2020,#801);
#801=APPLICATION_CONTEXT('managed model based 3d engineering');
ENDSEC;
END-ISO-10303-21;
